<mxfile host="65bd71144e">
    <diagram id="xWT4Gjws2kExEFxCpWoK" name="Page-1">
        <mxGraphModel dx="466" dy="352" grid="1" gridSize="10" guides="1" tooltips="1" connect="1" arrows="1" fold="1" page="1" pageScale="1" pageWidth="1169" pageHeight="1654" math="0" shadow="0">
            <root>
                <mxCell id="0"/>
                <mxCell id="1" parent="0"/>
                <mxCell id="7" value="" style="ellipse;whiteSpace=wrap;html=1;aspect=fixed;labelBackgroundColor=default;fillColor=#001529;" vertex="1" parent="1">
                    <mxGeometry x="150" y="90" width="170" height="170" as="geometry"/>
                </mxCell>
                <mxCell id="8" value="" style="shape=singleArrow;whiteSpace=wrap;html=1;labelBackgroundColor=default;fillColor=#15616d;strokeColor=#15616d;" vertex="1" parent="1">
                    <mxGeometry x="200" y="160" width="100" height="60" as="geometry"/>
                </mxCell>
                <mxCell id="9" value="" style="shape=singleArrow;direction=west;whiteSpace=wrap;html=1;labelBackgroundColor=#15616d;fillColor=#15616d;fontColor=#ffffff;strokeColor=#15616d;" vertex="1" parent="1">
                    <mxGeometry x="170" y="130" width="100" height="60" as="geometry"/>
                </mxCell>
            </root>
        </mxGraphModel>
    </diagram>
</mxfile>